<svg fill="url(#a)" width="210" height="210" viewBox="0.27 0.27 3.4 3.4" xmlns="http://www.w3.org/2000/svg"><path d="M3.651 2.084a2 2 0 0 1-.034.247 2.3 2.3 0 0 0-.57-.391 2.4 2.4 0 0 0-.367-.147 2.3 2.3 0 0 0-.478-.092l-.021-.003a2 2 0 0 1-.213-.493q-.004-.003 0-.005a2 2 0 0 1 .399.039 1.8 1.8 0 0 1 .41.131 2 2 0 0 1 .367.205 2 2 0 0 1 .507.509M3.16.771a1.6 1.6 0 0 0-.486-.333 1 1 0 0 0-.257-.095 1.5 1.5 0 0 0-.407-.06.3.3 0 0 0-.084 0 2 2 0 0 0-.034.373q.001.078.005.152l.068-.003.074.003A2 2 0 0 1 2.43.85a2.4 2.4 0 0 1 .354.097 2.4 2.4 0 0 1 .402.184 2.6 2.6 0 0 1 .365.255A1.7 1.7 0 0 0 3.16.772M1.053 2.3a2.5 2.5 0 0 1-.163-.36 2.4 2.4 0 0 1-.097-.37 2.4 2.4 0 0 1-.042-.438v-.008A2 2 0 0 1 .777.772a1.65 1.65 0 0 0-.391.619 1.6 1.6 0 0 0-.105.578q.001.06.005.116a2 2 0 0 0 .034.247 1.5 1.5 0 0 0 .108.323q.088-.02.171-.045a2 2 0 0 0 .499-.231zm.683-.598a2.4 2.4 0 0 1-.165-.462 2.4 2.4 0 0 1-.063-.389A3 3 0 0 1 1.5.657a2 2 0 0 1 .021-.312 1 1 0 0 0-.257.095 2 2 0 0 0-.11.509 2 2 0 0 0-.008.176 2 2 0 0 0 .016.244 2 2 0 0 0 .097.428 1.7 1.7 0 0 0 .155.336 2 2 0 0 0 .333-.412l-.011-.018m1.599.906s0-.003-.003 0a1.8 1.8 0 0 0-.446-.304l-.045.076a2.4 2.4 0 0 1-.231.32 2.4 2.4 0 0 1-.278.281 3 3 0 0 1-.362.257 2.4 2.4 0 0 1-.693.268 1.65 1.65 0 0 0 1.386 0 1.57 1.57 0 0 0 .635-.496 1.3 1.3 0 0 0 .171-.27 2 2 0 0 0-.134-.131m-1.357-.525-.008.011a2.4 2.4 0 0 1-.328.367 2.5 2.5 0 0 1-.312.239 2.4 2.4 0 0 1-.688.31 2 2 0 0 0 .139.16 2 2 0 0 0 .827-.189 2 2 0 0 0 .362-.215 2 2 0 0 0 .328-.304 2 2 0 0 0 .215-.302 2 2 0 0 0-.536-.076"/><defs><linearGradient id="a" x1="105.001" y1="0" x2="105.001" y2="210.008" gradientUnits="userSpaceOnUse"><stop stop-color="#8b5cf6"/><stop offset="1" stop-color="#6d28d9"/></linearGradient></defs></svg>